# xmcd
#
# Track frame offsets: 
#        150
#        16360
#        45657
#        62935
#        85865
#        110412
#        126742
#        141930
#        163032
#        174285
#
# Disc length: 2633 seconds
#
# Revision: 0
# Processed by: cddbd v1.5PL3 Copyright (c) Steve Scherf et al.
# Submitted via: ExactAudioCopy v0.95a3
#
DISCID=8a0a470a
DTITLE=Frank Bey - Steppin' Out
DYEAR=1900
DGENRE=Blues
TTITLE0=Someone Else Is Stepping In
TTITLE1=If You Want Me
TTITLE2=Cookie Jar
TTITLE3=Ain't No Reason
TTITLE4=Girl, I Want To Be With You
TTITLE5=Blues Medley
TTITLE6=When It Comes To You
TTITLE7=Brother Man Blues
TTITLE8=Walk With Me
TTITLE9=Can't Turn Back
EXTD=
EXTT0=
EXTT1=
EXTT2=
EXTT3=
EXTT4=
EXTT5=
EXTT6=
EXTT7=
EXTT8=
EXTT9=
PLAYORDER=
